<?xml version="1.0" standalone="no"?>
<!DOCTYPE svg PUBLIC "-//W3C//DTD SVG 20010904//EN"
 "http://www.w3.org/TR/2001/REC-SVG-20010904/DTD/svg10.dtd">
<svg version="1.0" xmlns="http://www.w3.org/2000/svg"
 width="300.000000pt" height="300.000000pt" viewBox="0 0 300.000000 300.000000"
 preserveAspectRatio="xMidYMid meet">
<metadata>
Created by potrace 1.10, written by Peter Selinger 2001-2011
</metadata>
<g transform="translate(0.000000,300.000000) scale(0.100000,-0.100000)"
fill="#000000" stroke="none">
<path d="M1065 2255 c-133 -29 -265 -101 -305 -168 -25 -40 -25 -47 0 -47 13
0 25 11 34 34 51 123 401 221 524 146 42 -26 41 -56 -4 -108 -47 -56 -312
-242 -344 -242 -6 0 -10 48 -10 131 0 119 -2 130 -17 127 -16 -3 -18 -19 -21
-150 l-3 -147 -29 -18 c-39 -22 -39 -43 0 -43 l30 0 2 -172 c3 -155 5 -173 21
-176 12 -2 17 3 17 17 l0 21 33 -20 c17 -11 41 -20 52 -21 11 0 -7 -13 -43
-29 -141 -65 -262 -161 -302 -239 -83 -164 80 -295 296 -237 194 51 403 257
465 457 10 33 19 76 19 95 0 22 6 37 15 40 19 8 20 24 1 24 -7 0 -26 25 -41
55 -32 67 -111 128 -197 153 -32 9 -57 22 -55 27 2 6 68 43 148 82 177 89 293
125 406 127 75 1 85 -1 107 -24 51 -51 80 -269 70 -520 -8 -211 8 -189 -142
-192 -80 -2 -125 -7 -122 -13 3 -6 54 -9 129 -8 l124 2 -7 -112 c-3 -62 -9
-150 -13 -196 -6 -78 -5 -83 13 -79 22 4 26 24 44 241 l13 147 51 0 c59 0 96
8 96 21 0 5 -33 9 -72 9 l-73 0 4 212 c8 489 -45 582 -303 534 -150 -29 -350
-109 -475 -191 -52 -35 -55 -35 -109 -25 -31 5 -73 10 -95 10 -62 0 -43 25 74
99 221 138 319 226 319 286 0 19 -8 39 -19 49 -48 44 -186 58 -306 31z m33
-501 c21 -4 19 -8 -28 -45 -28 -22 -64 -58 -80 -81 l-30 -41 0 85 c0 46 2 87
5 90 6 5 94 0 133 -8z m147 -40 c94 -38 185 -125 185 -177 0 -10 -27 -20 -82
-32 -46 -10 -120 -31 -166 -47 -72 -25 -88 -28 -117 -18 -47 15 -85 48 -85 71
0 26 32 86 67 126 34 38 111 103 124 103 5 0 38 -12 74 -26z m188 -262 c-4
-95 -86 -245 -193 -352 -175 -176 -422 -231 -486 -108 -23 45 -14 116 22 175
62 101 294 243 395 243 27 0 49 5 49 10 0 6 -8 10 -17 11 -20 1 3 9 127 44 47
13 90 22 95 21 6 -2 9 -21 8 -44z"/>
</g>
</svg>
